<?xml version="1.0" encoding="UTF-8" standalone="no"?>
<svg
   version="1.1"
   viewBox="0 0 1232 695"
   width="2464"
   height="1390"
   id="svg1022"
   sodipodi:docname="vision-features-and-ideas.svg"
   inkscape:version="1.2.1 (9c6d41e410, 2022-07-14, custom)"
   xmlns:inkscape="http://www.inkscape.org/namespaces/inkscape"
   xmlns:sodipodi="http://sodipodi.sourceforge.net/DTD/sodipodi-0.dtd"
   xmlns="http://www.w3.org/2000/svg"
   xmlns:svg="http://www.w3.org/2000/svg">
  <sodipodi:namedview
     id="namedview1024"
     pagecolor="#505050"
     bordercolor="#eeeeee"
     borderopacity="1"
     inkscape:showpageshadow="0"
     inkscape:pageopacity="0"
     inkscape:pagecheckerboard="0"
     inkscape:deskcolor="#505050"
     showgrid="false"
     inkscape:zoom="0.55073052"
     inkscape:cx="1217.4738"
     inkscape:cy="695.43994"
     inkscape:window-width="1920"
     inkscape:window-height="1011"
     inkscape:window-x="0"
     inkscape:window-y="0"
     inkscape:window-maximized="1"
     inkscape:current-layer="svg1022" />
  <!-- svg-source:excalidraw -->
  <defs
     id="defs532">
    <style
       class="style-fonts"
       id="style530">
      @font-face {
        font-family: &quot;Virgil&quot;;
        src: url(&quot;https://excalidraw.com/Virgil.woff2&quot;);
      }
      @font-face {
        font-family: &quot;Cascadia&quot;;
        src: url(&quot;https://excalidraw.com/Cascadia.woff2&quot;);
      }
    </style>
  </defs>
  <rect
     x="0"
     y="0"
     width="1232"
     height="695"
     fill="#ffffff"
     id="rect534"
     style="fill:#797979;fill-opacity:1"
     sodipodi:insensitive="true" />
  <g
     transform="translate(57 92) rotate(0 46.5 25.5)"
     id="g540">
    <text
       x="0"
       y="18.5"
       font-family="Virgil, Segoe UI Emoji"
       font-size="20px"
       fill="#000000"
       text-anchor="start"
       style="white-space: pre;"
       direction="ltr"
       id="text536">immutable</text>
    <text
       x="0"
       y="44"
       font-family="Virgil, Segoe UI Emoji"
       font-size="20px"
       fill="#000000"
       text-anchor="start"
       style="white-space: pre;"
       direction="ltr"
       id="text538">records</text>
  </g>
  <g
     stroke-linecap="round"
     id="g554">
    <g
       transform="translate(376 119) rotate(0 241.44209383902603 -45.60351347955779)"
       id="g544">
      <path
         d="M-0.76 -0.68 C34.81 -16.26, 133.59 -91.75, 213.91 -92.77 C294.23 -93.79, 436.33 -20.86, 481.18 -6.81 M1.05 1.58 C36.41 -13.93, 132.48 -89.95, 212.92 -91.64 C293.35 -93.32, 438.5 -22.54, 483.64 -8.54"
         stroke="#5c940d"
         stroke-width="1"
         fill="none"
         id="path542" />
    </g>
    <g
       transform="translate(376 119) rotate(0 241.44209383902603 -45.60351347955779)"
       id="g548">
      <path
         d="M452.51 -9.29 C462.62 -10.11, 476.13 -6.88, 482.85 -8.79 M452.86 -9.37 C462.42 -9.77, 471.64 -8.14, 483.68 -9.5"
         stroke="#5c940d"
         stroke-width="1"
         fill="none"
         id="path546" />
    </g>
    <g
       transform="translate(376 119) rotate(0 241.44209383902603 -45.60351347955779)"
       id="g552">
      <path
         d="M459.92 -28.43 C467.6 -22.76, 478.58 -12.98, 482.85 -8.79 M460.26 -28.51 C467.54 -23.01, 474.48 -15.46, 483.68 -9.5"
         stroke="#5c940d"
         stroke-width="1"
         fill="none"
         id="path550" />
    </g>
  </g>
  <g
     transform="translate(876 85) rotate(0 39 25.5)"
     id="g560">
    <text
       x="0"
       y="18.5"
       font-family="Virgil, Segoe UI Emoji"
       font-size="20px"
       fill="#000000"
       text-anchor="start"
       style="white-space: pre;"
       direction="ltr"
       id="text556">infinite</text>
    <text
       x="0"
       y="44"
       font-family="Virgil, Segoe UI Emoji"
       font-size="20px"
       fill="#000000"
       text-anchor="start"
       style="white-space: pre;"
       direction="ltr"
       id="text558">storage</text>
  </g>
  <g
     stroke-linecap="round"
     id="g574">
    <g
       transform="translate(176.5 92.5) rotate(0 149.63748792795 -9.86421683655837)"
       id="g564">
      <path
         d="M1.03 1.17 C25.31 -5.34, 96.78 -41.03, 146.47 -38.13 C196.16 -35.23, 273.78 9.2, 299.16 18.56 M0.12 0.74 C24.21 -5.66, 95.95 -39.31, 145.77 -36.69 C195.58 -34.07, 273.4 7.14, 299 16.44"
         stroke="#5c940d"
         stroke-width="1"
         fill="none"
         id="path562" />
    </g>
    <g
       transform="translate(176.5 92.5) rotate(0 149.63748792795 -9.86421683655837)"
       id="g568">
      <path
         d="M271 15.48 C279.69 17.01, 291.67 16.94, 298.87 15.93 M269.35 13.77 C277.05 15.28, 282.84 15.76, 298.73 17.27"
         stroke="#5c940d"
         stroke-width="1"
         fill="none"
         id="path566" />
    </g>
    <g
       transform="translate(176.5 92.5) rotate(0 149.63748792795 -9.86421683655837)"
       id="g572">
      <path
         d="M279.13 -3.36 C284.99 5.13, 294 11.95, 298.87 15.93 M277.48 -5.07 C283.11 0.84, 286.99 5.75, 298.73 17.27"
         stroke="#5c940d"
         stroke-width="1"
         fill="none"
         id="path570" />
    </g>
  </g>
  <g
     transform="translate(489.5 87) rotate(0 35.5 25.5)"
     id="g580">
    <text
       x="0"
       y="18.5"
       font-family="Virgil, Segoe UI Emoji"
       font-size="20px"
       fill="#000000"
       text-anchor="start"
       style="white-space: pre;"
       direction="ltr"
       id="text576">reified</text>
    <text
       x="0"
       y="44"
       font-family="Virgil, Segoe UI Emoji"
       font-size="20px"
       fill="#000000"
       text-anchor="start"
       style="white-space: pre;"
       direction="ltr"
       id="text578">timeline</text>
  </g>
  <g
     stroke-linecap="round"
     id="g594">
    <g
       transform="translate(572.5 111.5) rotate(0 47.17938336101827 -1.3981156088411808)"
       id="g584">
      <path
         d="M0.16 0.13 C16.18 -0.22, 79.72 -2.41, 95.58 -2.93 M-1.22 -0.84 C14.74 -0.91, 78.94 -1.22, 94.94 -1.36"
         stroke="#5c940d"
         stroke-width="1"
         fill="none"
         id="path582" />
    </g>
    <g
       transform="translate(572.5 111.5) rotate(0 47.17938336101827 -1.3981156088411808)"
       id="g588">
      <path
         d="M67.04 10.05 C74.16 6.96, 81.23 5.53, 94.67 -2.48 M66.65 10.07 C72.96 7.46, 80.46 4.44, 95.04 -1.84"
         stroke="#5c940d"
         stroke-width="1"
         fill="none"
         id="path586" />
    </g>
    <g
       transform="translate(572.5 111.5) rotate(0 47.17938336101827 -1.3981156088411808)"
       id="g592">
      <path
         d="M66.9 -10.47 C73.92 -8.33, 81.03 -4.54, 94.67 -2.48 M66.52 -10.45 C73.03 -7.95, 80.56 -5.86, 95.04 -1.84"
         stroke="#5c940d"
         stroke-width="1"
         fill="none"
         id="path590" />
    </g>
  </g>
  <g
     transform="translate(682.5 85) rotate(0 20.5 25.5)"
     id="g600">
    <text
       x="0"
       y="18.5"
       font-family="Virgil, Segoe UI Emoji"
       font-size="20px"
       fill="#000000"
       text-anchor="start"
       style="white-space: pre;"
       direction="ltr"
       id="text596">app</text>
    <text
       x="0"
       y="44"
       font-family="Virgil, Segoe UI Emoji"
       font-size="20px"
       fill="#000000"
       text-anchor="start"
       style="white-space: pre;"
       direction="ltr"
       id="text598">time</text>
  </g>
  <g
     stroke-linecap="round"
     id="g614">
    <g
       transform="translate(171.5 114.5) rotate(0 47.02684414695486 10.08762582882666)"
       id="g604">
      <path
         d="M1.13 0.77 C7.21 3.83, 21.28 15.49, 36.73 18.55 C52.17 21.61, 84.24 19.03, 93.8 19.12 M0.26 0.13 C6.71 2.86, 23.5 14.1, 39.03 16.98 C54.56 19.85, 84.75 17.34, 93.45 17.37"
         stroke="#5c940d"
         stroke-width="1"
         fill="none"
         id="path602" />
    </g>
    <g
       transform="translate(171.5 114.5) rotate(0 47.02684414695486 10.08762582882666)"
       id="g608">
      <path
         d="M69 26.48 C77.61 25.56, 85.89 22.73, 95.3 16.96 M68.56 28.58 C72.44 25.52, 77.92 22.93, 93.59 18.1"
         stroke="#5c940d"
         stroke-width="1"
         fill="none"
         id="path606" />
    </g>
    <g
       transform="translate(171.5 114.5) rotate(0 47.02684414695486 10.08762582882666)"
       id="g612">
      <path
         d="M68.33 7.51 C77.18 12.6, 85.66 15.77, 95.3 16.96 M67.89 9.61 C71.86 10.37, 77.47 11.6, 93.59 18.1"
         stroke="#5c940d"
         stroke-width="1"
         fill="none"
         id="path610" />
    </g>
  </g>
  <g
     transform="translate(281 91) rotate(0 37 25.5)"
     id="g620">
    <text
       x="0"
       y="18.5"
       font-family="Virgil, Segoe UI Emoji"
       font-size="20px"
       fill="#000000"
       text-anchor="start"
       style="white-space: pre;"
       direction="ltr"
       id="text616">perfect</text>
    <text
       x="0"
       y="44"
       font-family="Virgil, Segoe UI Emoji"
       font-size="20px"
       fill="#000000"
       text-anchor="start"
       style="white-space: pre;"
       direction="ltr"
       id="text618">records</text>
  </g>
  <g
     transform="translate(1076.5 95) rotate(0 38.5 13)"
     id="g624">
    <text
       x="0"
       y="18"
       font-family="Virgil, Segoe UI Emoji"
       font-size="20px"
       fill="#000000"
       text-anchor="start"
       style="white-space: pre;"
       direction="ltr"
       id="text622">erasure</text>
  </g>
  <g
     stroke-linecap="round"
     id="g638">
    <g
       transform="translate(963.5 112.5) rotate(0 47.81958906765101 -1.6718203760683537)"
       id="g628">
      <path
         d="M0.75 0.28 C16.54 -0.26, 78.19 -3.04, 93.84 -3.62 M-0.31 -0.62 C15.9 -0.97, 80.27 -2.17, 95.95 -2.41"
         stroke="#e67700"
         stroke-width="1"
         fill="none"
         id="path626" />
    </g>
    <g
       transform="translate(963.5 112.5) rotate(0 47.81958906765101 -1.6718203760683537)"
       id="g632">
      <path
         d="M68.4 6.41 C73.37 5.15, 80.46 4.19, 95.45 -3.02 M68.5 9.18 C79.67 5.05, 90.42 0.22, 95.92 -2.11"
         stroke="#e67700"
         stroke-width="1"
         fill="none"
         id="path630" />
    </g>
    <g
       transform="translate(963.5 112.5) rotate(0 47.81958906765101 -1.6718203760683537)"
       id="g636">
      <path
         d="M68.05 -14.11 C73.03 -10.66, 80.2 -6.91, 95.45 -3.02 M68.15 -11.34 C79.55 -7.34, 90.44 -4.04, 95.92 -2.11"
         stroke="#e67700"
         stroke-width="1"
         fill="none"
         id="path634" />
    </g>
  </g>
  <g
     stroke-linecap="round"
     transform="translate(28 10) rotate(0 589.5 105)"
     id="g642">
    <path
       d="M-0.76 -0.67 C455.64 -3.73, 912.46 -4.7, 1179.74 -0.63 M0.32 0.06 C413.96 1.97, 828.08 1.67, 1178.6 -0.03 M1178.06 0.56 C1177.47 74.69, 1179.01 151.35, 1177.76 211.07 M1178.63 -0.54 C1177.94 69.9, 1177.58 140.46, 1179.08 210.56 M1179.52 209.65 C749.94 213.53, 322.52 212.9, 0.47 210.67 M1179.19 210.04 C713.19 209.04, 247.82 208.87, -0.32 209.96 M0.05 211.33 C1.33 150.84, 2.45 89.41, -1.45 -0.36 M0.43 210.23 C0.63 132.29, -0.44 54.8, 0.44 0.05"
       stroke="#000000"
       stroke-width="1"
       fill="none"
       id="path640" />
  </g>
  <g
     transform="translate(840 340) rotate(0 27.5 13)"
     id="g646">
    <text
       x="0"
       y="18"
       font-family="Virgil, Segoe UI Emoji"
       font-size="20px"
       fill="#000000"
       text-anchor="start"
       style="white-space: pre;"
       direction="ltr"
       id="text644">HTAP</text>
  </g>
  <g
     transform="translate(907.5 394) rotate(0 41 38.5)"
     id="g654">
    <text
       x="41"
       y="17.666666666666668"
       font-family="Virgil, Segoe UI Emoji"
       font-size="20px"
       fill="#000000"
       text-anchor="middle"
       style="white-space: pre;"
       direction="ltr"
       id="text648">Storage</text>
    <text
       x="41"
       y="43.333333333333336"
       font-family="Virgil, Segoe UI Emoji"
       font-size="20px"
       fill="#000000"
       text-anchor="middle"
       style="white-space: pre;"
       direction="ltr"
       id="text650">vs</text>
    <text
       x="41"
       y="69"
       font-family="Virgil, Segoe UI Emoji"
       font-size="20px"
       fill="#000000"
       text-anchor="middle"
       style="white-space: pre;"
       direction="ltr"
       id="text652">Compute</text>
  </g>
  <g
     stroke-linecap="round"
     id="g668">
    <g
       transform="translate(895.5 149.49999999999994) rotate(0 -12.833794049108405 87.57745548837818)"
       id="g658">
      <path
         d="M-0.95 0.65 C-5.1 29.73, -21.49 144.76, -25.31 173.79 M0.75 -0.06 C-3.54 29.27, -22.29 146.39, -26.41 175.22"
         stroke="#000000"
         stroke-width="1"
         fill="none"
         id="path656" />
    </g>
    <g
       transform="translate(895.5 149.49999999999994) rotate(0 -12.833794049108405 87.57745548837818)"
       id="g662">
      <path
         d="M-31.23 145.29 C-31.28 155.52, -28 161.93, -25.2 174.93 M-31.42 145.48 C-30.94 152.18, -30.33 158.42, -26.11 175.54"
         stroke="#000000"
         stroke-width="1"
         fill="none"
         id="path660" />
    </g>
    <g
       transform="translate(895.5 149.49999999999994) rotate(0 -12.833794049108405 87.57745548837818)"
       id="g666">
      <path
         d="M-10.94 148.39 C-16.31 157.64, -18.37 163.24, -25.2 174.93 M-11.13 148.57 C-15.05 154.64, -18.87 160.21, -26.11 175.54"
         stroke="#000000"
         stroke-width="1"
         fill="none"
         id="path664" />
    </g>
  </g>
  <g
     stroke-linecap="round"
     id="g682">
    <g
       transform="translate(935.1717495846558 150.0000000000001) rotate(0 6.496056338621315 114.00065067037934)"
       id="g672">
      <path
         d="M1.06 -1 C3.16 37.05, 11.2 190.81, 12.83 229.01 M0.16 1.08 C2.18 38.76, 10.31 189.33, 12.51 227.41"
         stroke="#000000"
         stroke-width="1"
         fill="none"
         id="path670" />
    </g>
    <g
       transform="translate(935.1717495846558 150.0000000000001) rotate(0 6.496056338621315 114.00065067037934)"
       id="g676">
      <path
         d="M-0.98 201.82 C6.32 207.29, 8.69 217.12, 10.95 226.38 M0.89 199.6 C4.89 210.59, 10.41 221.95, 12.99 226.79"
         stroke="#000000"
         stroke-width="1"
         fill="none"
         id="path674" />
    </g>
    <g
       transform="translate(935.1717495846558 150.0000000000001) rotate(0 6.496056338621315 114.00065067037934)"
       id="g680">
      <path
         d="M19.51 200.68 C20.24 206.69, 16.04 216.9, 10.95 226.38 M21.38 198.46 C17.39 209.79, 14.91 221.6, 12.99 226.79"
         stroke="#000000"
         stroke-width="1"
         fill="none"
         id="path678" />
    </g>
  </g>
  <g
     transform="translate(1060 340) rotate(0 81 51)"
     id="g692">
    <text
       x="0"
       y="18.5"
       font-family="Virgil, Segoe UI Emoji"
       font-size="20px"
       fill="#000000"
       text-anchor="start"
       style="white-space: pre;"
       direction="ltr"
       id="text684">EU - GDPR</text>
    <text
       x="0"
       y="44"
       font-family="Virgil, Segoe UI Emoji"
       font-size="20px"
       fill="#000000"
       text-anchor="start"
       style="white-space: pre;"
       direction="ltr"
       id="text686">UK - ICO GDPR</text>
    <text
       x="0"
       y="69.5"
       font-family="Virgil, Segoe UI Emoji"
       font-size="20px"
       fill="#000000"
       text-anchor="start"
       style="white-space: pre;"
       direction="ltr"
       id="text688">CAN - PIPEDA</text>
    <text
       x="0"
       y="95"
       font-family="Virgil, Segoe UI Emoji"
       font-size="20px"
       fill="#000000"
       text-anchor="start"
       style="white-space: pre;"
       direction="ltr"
       id="text690">etc.</text>
  </g>
  <g
     stroke-linecap="round"
     id="g706">
    <g
       transform="translate(1111.5 129.00000000000006) rotate(0 0.40897915867617485 93.95779112507589)"
       id="g696">
      <path
         d="M-0.55 1.13 C-0.42 32.05, 0.81 155.19, 0.96 185.8 M1.37 0.68 C1.31 31.76, 0.35 156.43, -0.02 187.24"
         stroke="#000000"
         stroke-width="1"
         fill="none"
         id="path694" />
    </g>
    <g
       transform="translate(1111.5 129.00000000000006) rotate(0 0.40897915867617485 93.95779112507589)"
       id="g700">
      <path
         d="M-8.13 158.88 C-7.1 166.83, -5.54 175.93, -0.43 185.89 M-10.48 158.16 C-6.65 166.8, -4.79 173.58, -0.14 187.6"
         stroke="#000000"
         stroke-width="1"
         fill="none"
         id="path698" />
    </g>
    <g
       transform="translate(1111.5 129.00000000000006) rotate(0 0.40897915867617485 93.95779112507589)"
       id="g704">
      <path
         d="M12.39 159.07 C6.91 166.87, 1.96 175.91, -0.43 185.89 M10.04 158.35 C8.78 167.05, 5.53 173.78, -0.14 187.6"
         stroke="#000000"
         stroke-width="1"
         fill="none"
         id="path702" />
    </g>
  </g>
  <g
     transform="translate(12 344) rotate(0 36 38.5)"
     id="g714">
    <text
       x="36"
       y="17.666666666666668"
       font-family="Virgil, Segoe UI Emoji"
       font-size="20px"
       fill="#000000"
       text-anchor="middle"
       style="white-space: pre;"
       direction="ltr"
       id="text708">Events</text>
    <text
       x="36"
       y="43.333333333333336"
       font-family="Virgil, Segoe UI Emoji"
       font-size="20px"
       fill="#000000"
       text-anchor="middle"
       style="white-space: pre;"
       direction="ltr"
       id="text710">vs</text>
    <text
       x="36"
       y="69"
       font-family="Virgil, Segoe UI Emoji"
       font-size="20px"
       fill="#000000"
       text-anchor="middle"
       style="white-space: pre;"
       direction="ltr"
       id="text712">States</text>
  </g>
  <g
     stroke-linecap="round"
     id="g728">
    <g
       transform="translate(97.50000000000006 150.00000000000006) rotate(0 -28.19861759787861 88.58981173748617)"
       id="g718">
      <path
         d="M-0.94 -0.51 C-10.21 29.21, -46.83 149.17, -56.16 179 M0.77 -1.82 C-8.62 27.52, -47.95 147.7, -57.17 177.41"
         stroke="#000000"
         stroke-width="1"
         fill="none"
         id="path716" />
    </g>
    <g
       transform="translate(97.50000000000006 150.00000000000006) rotate(0 -28.19861759787861 88.58981173748617)"
       id="g722">
      <path
         d="M-59.2 147.23 C-56.21 153.59, -56.77 161.21, -55.65 177.87 M-57.6 146.55 C-58.34 155.96, -58.05 163.48, -57.35 177.22"
         stroke="#000000"
         stroke-width="1"
         fill="none"
         id="path720" />
    </g>
    <g
       transform="translate(97.50000000000006 150.00000000000006) rotate(0 -28.19861759787861 88.58981173748617)"
       id="g726">
      <path
         d="M-39.65 153.49 C-41.68 158.1, -47.22 164.13, -55.65 177.87 M-38.06 152.8 C-44.18 160.4, -49.2 166.21, -57.35 177.22"
         stroke="#000000"
         stroke-width="1"
         fill="none"
         id="path724" />
    </g>
  </g>
  <g
     transform="translate(149 381) rotate(0 50 38.5)"
     id="g736">
    <text
       x="50"
       y="17.666666666666668"
       font-family="Virgil, Segoe UI Emoji"
       font-size="20px"
       fill="#000000"
       text-anchor="middle"
       style="white-space: pre;"
       direction="ltr"
       id="text730">Database</text>
    <text
       x="50"
       y="43.333333333333336"
       font-family="Virgil, Segoe UI Emoji"
       font-size="20px"
       fill="#000000"
       text-anchor="middle"
       style="white-space: pre;"
       direction="ltr"
       id="text732">as a </text>
    <text
       x="50"
       y="69"
       font-family="Virgil, Segoe UI Emoji"
       font-size="20px"
       fill="#000000"
       text-anchor="middle"
       style="white-space: pre;"
       direction="ltr"
       id="text734">Value</text>
  </g>
  <g
     transform="translate(350.5 378) rotate(0 54.5 13)"
     id="g740">
    <text
       x="0"
       y="18"
       font-family="Virgil, Segoe UI Emoji"
       font-size="20px"
       fill="#000000"
       text-anchor="start"
       style="white-space: pre;"
       direction="ltr"
       id="text738">Schemaless</text>
  </g>
  <g
     transform="translate(273 451) rotate(0 34.5 25.5)"
     id="g746">
    <text
       x="0"
       y="18.5"
       font-family="Virgil, Segoe UI Emoji"
       font-size="20px"
       fill="#000000"
       text-anchor="start"
       style="white-space: pre;"
       direction="ltr"
       id="text742">Nested</text>
    <text
       x="0"
       y="44"
       font-family="Virgil, Segoe UI Emoji"
       font-size="20px"
       fill="#000000"
       text-anchor="start"
       style="white-space: pre;"
       direction="ltr"
       id="text744">Data</text>
  </g>
  <g
     stroke-linecap="round"
     id="g760">
    <g
       transform="translate(288.5 160.99999999999994) rotate(0 -36.91379851969424 101.71165583903434)"
       id="g750">
      <path
         d="M-0.67 0.41 C-13.37 34.52, -62.92 170.28, -75 203.85 M1.17 -0.43 C-11.26 33.43, -60.37 168.34, -72.82 202.17"
         stroke="#000000"
         stroke-width="1"
         fill="none"
         id="path748" />
    </g>
    <g
       transform="translate(288.5 160.99999999999994) rotate(0 -36.91379851969424 101.71165583903434)"
       id="g754">
      <path
         d="M-72.09 170.5 C-71.58 185.45, -74.94 197.91, -72.33 201.04 M-73 172.43 C-73.14 183.23, -73.03 192.56, -73.77 201.49"
         stroke="#000000"
         stroke-width="1"
         fill="none"
         id="path752" />
    </g>
    <g
       transform="translate(288.5 160.99999999999994) rotate(0 -36.91379851969424 101.71165583903434)"
       id="g758">
      <path
         d="M-52.82 177.55 C-59.92 189.59, -70.94 199.25, -72.33 201.04 M-53.73 179.48 C-60.57 187.83, -67.14 194.71, -73.77 201.49"
         stroke="#000000"
         stroke-width="1"
         fill="none"
         id="path756" />
    </g>
  </g>
  <g
     stroke-linecap="round"
     id="g774">
    <g
       transform="translate(310 158.50000000000006) rotate(0 -0.31719229583632114 136.18068768669855)"
       id="g764">
      <path
         d="M-0.64 -0.01 C-0.74 45.37, -1.25 226.59, -1.29 272.27 M1.23 -1.06 C1.09 44.46, -1.49 227.87, -1.86 273.42"
         stroke="#000000"
         stroke-width="1"
         fill="none"
         id="path762" />
    </g>
    <g
       transform="translate(310 158.50000000000006) rotate(0 -0.31719229583632114 136.18068768669855)"
       id="g768">
      <path
         d="M-11.81 246.3 C-10.62 253.93, -5.28 260.45, -2.35 274.32 M-12.2 245.1 C-8.7 250.8, -7.63 257.35, -1.15 272.92"
         stroke="#000000"
         stroke-width="1"
         fill="none"
         id="path766" />
    </g>
    <g
       transform="translate(310 158.50000000000006) rotate(0 -0.31719229583632114 136.18068768669855)"
       id="g772">
      <path
         d="M8.71 246.53 C4.93 254, 5.32 260.46, -2.35 274.32 M8.32 245.33 C7.69 251.01, 4.62 257.51, -1.15 272.92"
         stroke="#000000"
         stroke-width="1"
         fill="none"
         id="path770" />
    </g>
  </g>
  <g
     stroke-linecap="round"
     id="g788">
    <g
       transform="translate(341 161.50000000000006) rotate(0 27.543971338826225 105.85782013886606)"
       id="g778">
      <path
         d="M-1.08 0.91 C7.91 35.98, 44.51 175.19, 53.99 210.23 M0.55 0.35 C9.9 35.57, 47.02 175.99, 56.17 211.37"
         stroke="#000000"
         stroke-width="1"
         fill="none"
         id="path776" />
    </g>
    <g
       transform="translate(341 161.50000000000006) rotate(0 27.543971338826225 105.85782013886606)"
       id="g782">
      <path
         d="M40.62 185.01 C43 195.69, 49.82 200.12, 56.91 211.47 M38.58 185.83 C43.8 194.98, 48.81 201.99, 55.35 212.34"
         stroke="#000000"
         stroke-width="1"
         fill="none"
         id="path780" />
    </g>
    <g
       transform="translate(341 161.50000000000006) rotate(0 27.543971338826225 105.85782013886606)"
       id="g786">
      <path
         d="M60.48 179.81 C56.78 191.9, 57.53 197.92, 56.91 211.47 M58.43 180.63 C57.8 191.25, 56.95 199.79, 55.35 212.34"
         stroke="#000000"
         stroke-width="1"
         fill="none"
         id="path784" />
    </g>
  </g>
  <g
     transform="translate(672.5 405) rotate(0 51.5 25.5)"
     id="g794">
    <text
       x="51.5"
       y="18.5"
       font-family="Virgil, Segoe UI Emoji"
       font-size="20px"
       fill="#000000"
       text-anchor="middle"
       style="white-space: pre;"
       direction="ltr"
       id="text790">Bitemporal</text>
    <text
       x="51.5"
       y="44"
       font-family="Virgil, Segoe UI Emoji"
       font-size="20px"
       fill="#000000"
       text-anchor="middle"
       style="white-space: pre;"
       direction="ltr"
       id="text792">Query</text>
  </g>
  <g
     stroke-linecap="round"
     id="g808">
    <g
       transform="translate(705.818557438949 145.50000000000006) rotate(0 11.409288179471787 121.77390893568281)"
       id="g798">
      <path
         d="M-0.18 0.15 C3.55 40.84, 18.34 202.5, 22.14 243.23 M-1.73 -0.81 C2.42 40.09, 20.62 203.82, 24.55 244.36"
         stroke="#000000"
         stroke-width="1"
         fill="none"
         id="path796" />
    </g>
    <g
       transform="translate(705.818557438949 145.50000000000006) rotate(0 11.409288179471787 121.77390893568281)"
       id="g802">
      <path
         d="M11.66 216.43 C13.61 224.89, 19.46 231.14, 23.67 245.74 M11.67 217.4 C17.01 227.97, 20.94 237.33, 23.7 245.28"
         stroke="#000000"
         stroke-width="1"
         fill="none"
         id="path800" />
    </g>
    <g
       transform="translate(705.818557438949 145.50000000000006) rotate(0 11.409288179471787 121.77390893568281)"
       id="g806">
      <path
         d="M32.06 214.28 C28.26 223.33, 28.36 230.18, 23.67 245.74 M32.08 215.26 C30.01 226.63, 26.52 236.77, 23.7 245.28"
         stroke="#000000"
         stroke-width="1"
         fill="none"
         id="path804" />
    </g>
  </g>
  <g
     transform="translate(743 521) rotate(0 43 25.5)"
     id="g814">
    <text
       x="0"
       y="18.5"
       font-family="Virgil, Segoe UI Emoji"
       font-size="20px"
       fill="#000000"
       text-anchor="start"
       style="white-space: pre;"
       direction="ltr"
       id="text810">Columnar</text>
    <text
       x="0"
       y="44"
       font-family="Virgil, Segoe UI Emoji"
       font-size="20px"
       fill="#000000"
       text-anchor="start"
       style="white-space: pre;"
       direction="ltr"
       id="text812">Storage</text>
  </g>
  <g
     transform="translate(510 597) rotate(0 34 25.5)"
     id="g820">
    <text
       x="34"
       y="18.5"
       font-family="Virgil, Segoe UI Emoji"
       font-size="20px"
       fill="#000000"
       text-anchor="middle"
       style="white-space: pre;"
       direction="ltr"
       id="text816">Apache</text>
    <text
       x="34"
       y="44"
       font-family="Virgil, Segoe UI Emoji"
       font-size="20px"
       fill="#000000"
       text-anchor="middle"
       style="white-space: pre;"
       direction="ltr"
       id="text818">Arrow</text>
  </g>
  <g
     stroke-linecap="round"
     id="g834">
    <g
       transform="translate(858.8868186906502 376.00000000000006) rotate(0 -20.91256514241263 67.13543456554606)"
       id="g824">
      <path
         d="M-0.33 1.04 C-7.71 23.42, -36.61 111.94, -43.52 133.73 M1.7 0.54 C-5.4 22.63, -34.07 110.04, -41.41 132.04"
         stroke="#000000"
         stroke-width="1"
         fill="none"
         id="path822" />
    </g>
    <g
       transform="translate(858.8868186906502 376.00000000000006) rotate(0 -20.91256514241263 67.13543456554606)"
       id="g828">
      <path
         d="M-40.58 100.16 C-40.75 113.91, -43.61 125.33, -41.51 131.11 M-42.9 102.49 C-42.59 110.97, -41.35 118.82, -41.37 132.53"
         stroke="#000000"
         stroke-width="1"
         fill="none"
         id="path826" />
    </g>
    <g
       transform="translate(858.8868186906502 376.00000000000006) rotate(0 -20.91256514241263 67.13543456554606)"
       id="g832">
      <path
         d="M-21.09 106.59 C-28.35 117.94, -38.32 127.02, -41.51 131.11 M-23.41 108.92 C-28.67 115.38, -33.01 121.39, -41.37 132.53"
         stroke="#000000"
         stroke-width="1"
         fill="none"
         id="path830" />
    </g>
  </g>
  <g
     stroke-linecap="round"
     id="g848">
    <g
       transform="translate(729.1934093453251 555.4205872824481) rotate(0 -68.85164230575134 28.845887211912157)"
       id="g838">
      <path
         d="M-0.9 -0.29 C-24 9.35, -115.91 47.87, -138.53 57.59 M0.83 -1.49 C-21.93 8.39, -113.44 49.6, -136.42 59.18"
         stroke="#000000"
         stroke-width="1"
         fill="none"
         id="path836" />
    </g>
    <g
       transform="translate(729.1934093453251 555.4205872824481) rotate(0 -68.85164230575134 28.845887211912157)"
       id="g842">
      <path
         d="M-115.17 36.61 C-121.2 45.91, -127.09 49.37, -137.94 59.39 M-115.3 39.43 C-122.15 46.15, -128.96 51.63, -136.77 59.77"
         stroke="#000000"
         stroke-width="1"
         fill="none"
         id="path840" />
    </g>
    <g
       transform="translate(729.1934093453251 555.4205872824481) rotate(0 -68.85164230575134 28.845887211912157)"
       id="g846">
      <path
         d="M-106.97 55.42 C-115.47 58.9, -123.87 56.61, -137.94 59.39 M-107.1 58.24 C-116.87 58.7, -126.42 57.88, -136.77 59.77"
         stroke="#000000"
         stroke-width="1"
         fill="none"
         id="path844" />
    </g>
  </g>
  <g
     stroke-linecap="round"
     id="g862">
    <g
       transform="translate(310.693409345325 510.69123267024224) rotate(0 91.15317839894635 58.58577105367152)"
       id="g852">
      <path
         d="M0.24 0.56 C30.23 20.1, 150.61 96.58, 181.01 116.1 M-1.09 -0.2 C29.21 19.61, 152.82 98.02, 183.4 117.37"
         stroke="#000000"
         stroke-width="1"
         fill="none"
         id="path850" />
    </g>
    <g
       transform="translate(310.693409345325 510.69123267024224) rotate(0 91.15317839894635 58.58577105367152)"
       id="g856">
      <path
         d="M155.02 109.93 C164.52 115.02, 178.49 116.97, 182.24 117.88 M153.71 110.4 C166.11 112.94, 175.77 115.25, 182.52 117.8"
         stroke="#000000"
         stroke-width="1"
         fill="none"
         id="path854" />
    </g>
    <g
       transform="translate(310.693409345325 510.69123267024224) rotate(0 91.15317839894635 58.58577105367152)"
       id="g860">
      <path
         d="M166.01 92.6 C171.09 104.42, 180.8 113.08, 182.24 117.88 M164.7 93.07 C172.89 102.07, 178.39 110.92, 182.52 117.8"
         stroke="#000000"
         stroke-width="1"
         fill="none"
         id="path858" />
    </g>
  </g>
  <g
     transform="translate(566.5 284) rotate(0 55.5 25.5)"
     id="g868">
    <text
       x="55.5"
       y="18.5"
       font-family="Virgil, Segoe UI Emoji"
       font-size="20px"
       fill="#000000"
       text-anchor="middle"
       style="white-space: pre;"
       direction="ltr"
       id="text864">Repeatable</text>
    <text
       x="55.5"
       y="44"
       font-family="Virgil, Segoe UI Emoji"
       font-size="20px"
       fill="#000000"
       text-anchor="middle"
       style="white-space: pre;"
       direction="ltr"
       id="text866">Reads</text>
  </g>
  <g
     stroke-linecap="round"
     id="g882">
    <g
       transform="translate(520.1934093453251 152.5450842195218) rotate(0 33.99851372514104 58.387754341086435)"
       id="g872">
      <path
         d="M0.69 -0.96 C11.76 18.42, 54.99 97.05, 66.01 116.79 M-0.41 1.15 C11.1 20.59, 57.31 98.16, 68.4 117.73"
         stroke="#000000"
         stroke-width="1"
         fill="none"
         id="path870" />
    </g>
    <g
       transform="translate(520.1934093453251 152.5450842195218) rotate(0 33.99851372514104 58.387754341086435)"
       id="g876">
      <path
         d="M43.74 97.55 C49.69 103.86, 56.99 106.88, 69.49 118.95 M45.72 99.05 C51.08 104.07, 56.01 107.61, 67.66 117.75"
         stroke="#000000"
         stroke-width="1"
         fill="none"
         id="path874" />
    </g>
    <g
       transform="translate(520.1934093453251 152.5450842195218) rotate(0 33.99851372514104 58.387754341086435)"
       id="g880">
      <path
         d="M61.46 87.21 C62.74 96.38, 65.33 102.14, 69.49 118.95 M63.45 88.71 C64.45 96.26, 65.06 102.31, 67.66 117.75"
         stroke="#000000"
         stroke-width="1"
         fill="none"
         id="path878" />
    </g>
  </g>
  <g
     stroke-linecap="round"
     id="g896">
    <g
       transform="translate(690.6934093453251 146.0450842195217) rotate(0 -30.99741233589873 63.82655780007789)"
       id="g886">
      <path
         d="M-1.02 -0.01 C-11.19 21.23, -51.03 106.47, -60.98 127.66"
         stroke="#000000"
         stroke-width="1.5"
         fill="none"
         stroke-dasharray="8 9"
         id="path884" />
    </g>
    <g
       transform="translate(690.6934093453251 146.0450842195217) rotate(0 -30.99741233589873 63.82655780007789)"
       id="g890">
      <path
         d="M-58.33 96.8 C-57.81 106.29, -59.46 116.48, -59.67 126.78"
         stroke="#000000"
         stroke-width="1.5"
         fill="none"
         id="path888" />
    </g>
    <g
       transform="translate(690.6934093453251 146.0450842195217) rotate(0 -30.99741233589873 63.82655780007789)"
       id="g894">
      <path
         d="M-39.75 105.5 C-44.9 112.19, -52.22 119.73, -59.67 126.78"
         stroke="#000000"
         stroke-width="1.5"
         fill="none"
         id="path892" />
    </g>
  </g>
  <g
     transform="translate(504 378) rotate(0 63 25.5)"
     id="g902">
    <text
       x="63"
       y="18.5"
       font-family="Virgil, Segoe UI Emoji"
       font-size="20px"
       fill="#000000"
       text-anchor="middle"
       style="white-space: pre;"
       direction="ltr"
       id="text898">Deterministic</text>
    <text
       x="63"
       y="44"
       font-family="Virgil, Segoe UI Emoji"
       font-size="20px"
       fill="#000000"
       text-anchor="middle"
       style="white-space: pre;"
       direction="ltr"
       id="text900">Databases</text>
  </g>
  <g
     stroke-linecap="round"
     id="g916">
    <g
       transform="translate(361.6934093453251 145.0450842195217) rotate(0 70.12034198145102 108.56557463104562)"
       id="g906">
      <path
         d="M1.13 0.43 C24.48 36.36, 116.8 180.19, 139.98 216.31 M0.26 -0.4 C23.5 35.64, 115.98 181.03, 139.22 217.53"
         stroke="#000000"
         stroke-width="1"
         fill="none"
         id="path904" />
    </g>
    <g
       transform="translate(361.6934093453251 145.0450842195217) rotate(0 70.12034198145102 108.56557463104562)"
       id="g910">
      <path
         d="M116.14 199.86 C121.4 205.24, 129.68 209.14, 140.26 218.59 M115.04 198.39 C121.48 203.9, 125.32 207.59, 138.86 217.97"
         stroke="#000000"
         stroke-width="1"
         fill="none"
         id="path908" />
    </g>
    <g
       transform="translate(361.6934093453251 145.0450842195217) rotate(0 70.12034198145102 108.56557463104562)"
       id="g914">
      <path
         d="M133.45 188.84 C133.77 197.57, 137.05 204.66, 140.26 218.59 M132.35 187.37 C134.71 195.26, 134.57 201.48, 138.86 217.97"
         stroke="#000000"
         stroke-width="1"
         fill="none"
         id="path912" />
    </g>
  </g>
  <g
     stroke-linecap="round"
     id="g930">
    <g
       transform="translate(504.6934093453251 151.0450842195217) rotate(0 11.673273000351116 104.62572043361337)"
       id="g920">
      <path
         d="M0.42 -1.09 C4.45 33.91, 20.26 174.03, 24.17 209.18 M-0.82 0.95 C3.01 36.17, 18.46 175.32, 22.99 210.34"
         stroke="#000000"
         stroke-width="1"
         fill="none"
         id="path918" />
    </g>
    <g
       transform="translate(504.6934093453251 151.0450842195217) rotate(0 11.673273000351116 104.62572043361337)"
       id="g924">
      <path
         d="M7.66 182.82 C12.12 190.26, 17.23 200.69, 24.45 211.69 M10.3 184.55 C14.11 191.79, 19.17 200.19, 23.57 210.03"
         stroke="#000000"
         stroke-width="1"
         fill="none"
         id="path922" />
    </g>
    <g
       transform="translate(504.6934093453251 151.0450842195217) rotate(0 11.673273000351116 104.62572043361337)"
       id="g928">
      <path
         d="M28.04 180.4 C26.39 188.64, 25.41 199.79, 24.45 211.69 M30.68 182.13 C27.98 189.98, 26.53 199.15, 23.57 210.03"
         stroke="#000000"
         stroke-width="1"
         fill="none"
         id="path926" />
    </g>
  </g>
  <g
     transform="translate(500 517) rotate(0 42 13)"
     id="g934">
    <text
       x="42"
       y="18"
       font-family="Virgil, Segoe UI Emoji"
       font-size="20px"
       fill="#000000"
       text-anchor="middle"
       style="white-space: pre;"
       direction="ltr"
       id="text932">SQL:2011</text>
  </g>
  <g
     stroke-linecap="round"
     id="g948"
     transform="matrix(0.96564324,0,0,0.81166686,23.467812,84.107087)">
    <g
       transform="translate(680.69341,446.69123)"
       id="g938">
      <path
         d="m -0.99,0.81 c -13.46,13.18 -65.48,65.83 -78.7,79.32 M 0.7,0.2 c -13.75,13.85 -68.39,67.91 -81.5,81.21"
         stroke="#000000"
         stroke-width="1"
         fill="none"
         id="path936" />
    </g>
    <g
       transform="translate(680.69341,446.69123)"
       id="g942">
      <path
         d="m -66.77,53.71 c -6.89,9.45 -9.17,22.96 -15.59,27.08 m 14.7,-25.69 c -2.14,4.25 -5.38,11.09 -12.94,25.93"
         stroke="#000000"
         stroke-width="1"
         fill="none"
         id="path940" />
    </g>
    <g
       transform="translate(680.69341,446.69123)"
       id="g946">
      <path
         d="m -52.26,68.22 c -12.7,3.65 -20.66,11.48 -30.1,12.57 m 29.21,-11.18 c -5.31,1.23 -11.63,4.99 -27.45,11.42"
         stroke="#000000"
         stroke-width="1"
         fill="none"
         id="path944" />
    </g>
  </g>
  <g
     transform="translate(1067 530) rotate(0 43 25.5)"
     id="g954">
    <text
       x="43"
       y="18.5"
       font-family="Virgil, Segoe UI Emoji"
       font-size="20px"
       fill="#000000"
       text-anchor="middle"
       style="white-space: pre;"
       direction="ltr"
       id="text950">Adaptive</text>
    <text
       x="43"
       y="44"
       font-family="Virgil, Segoe UI Emoji"
       font-size="20px"
       fill="#000000"
       text-anchor="middle"
       style="white-space: pre;"
       direction="ltr"
       id="text952">Indexing</text>
  </g>
  <g
     stroke-linecap="round"
     id="g968">
    <g
       transform="translate(963.1934093453251 477.19099281040326) rotate(0 44.849184546402626 38.538754779241856)"
       id="g958">
      <path
         d="M0.36 0.17 C15.44 13.18, 75.69 64.95, 90.6 77.87 M-0.91 -0.79 C14.08 11.86, 75.16 62.57, 90.18 75.88"
         stroke="#000000"
         stroke-width="1"
         fill="none"
         id="path956" />
    </g>
    <g
       transform="translate(963.1934093453251 477.19099281040326) rotate(0 44.849184546402626 38.538754779241856)"
       id="g962">
      <path
         d="M62.35 67.02 C71.28 68.93, 79.81 72.34, 88.52 74.35 M62.41 65.47 C70.66 69.01, 80.9 71.76, 90.88 76.58"
         stroke="#000000"
         stroke-width="1"
         fill="none"
         id="path960" />
    </g>
    <g
       transform="translate(963.1934093453251 477.19099281040326) rotate(0 44.849184546402626 38.538754779241856)"
       id="g966">
      <path
         d="M75.68 51.42 C80.4 58.25, 84.76 66.55, 88.52 74.35 M75.73 49.87 C79.61 58.67, 85.36 66.67, 90.88 76.58"
         stroke="#000000"
         stroke-width="1"
         fill="none"
         id="path964" />
    </g>
  </g>
  <g
     transform="translate(403 475) rotate(0 14 13)"
     id="g972">
    <text
       x="0"
       y="18"
       font-family="Virgil, Segoe UI Emoji"
       font-size="20px"
       fill="#000000"
       text-anchor="start"
       style="white-space: pre;"
       direction="ltr"
       id="text970">UX</text>
  </g>
  <g
     stroke-linecap="round"
     id="g986"
     transform="matrix(0.89691028,0,0,0.97174567,44.324585,14.175533)">
    <g
       transform="translate(487.69341,527.86735)"
       id="g976">
      <path
         d="M 0.6,-0.47 C -8.53,-4.53 -46.53,-21.16 -55.96,-24.98 M -0.54,-1.75 C -9.65,-5.65 -47.13,-19.96 -56.43,-23.9"
         stroke="#000000"
         stroke-width="1"
         fill="none"
         id="path974" />
    </g>
    <g
       transform="translate(487.69341,527.86735)"
       id="g980">
      <path
         d="m -27.22,-21.4 c -6.76,-0.09 -10.23,-0.02 -27.47,-2.35 m 27.53,1.47 c -10.58,-1.87 -20.99,-1.36 -30.25,-2.23"
         stroke="#000000"
         stroke-width="1"
         fill="none"
         id="path978" />
    </g>
    <g
       transform="translate(487.69341,527.86735)"
       id="g984">
      <path
         d="m -34.84,-2.35 c -5.12,-4 -7.04,-7.81 -19.85,-21.4 m 19.9,20.52 c -7.85,-9.01 -15.41,-15.61 -22.62,-21.28"
         stroke="#000000"
         stroke-width="1"
         fill="none"
         id="path982" />
    </g>
  </g>
  <g
     stroke-linecap="round"
     id="g1000">
    <g
       transform="translate(397.6775144736016 409.19099281040303) rotate(0 5.853477949775197 28.97365236304404)"
       id="g990">
      <path
         d="M1.16 0.94 C2.88 10.18, 9.6 47.05, 11.4 56.57 M0.3 0.39 C1.8 10.26, 8.67 48.3, 10.56 57.56"
         stroke="#000000"
         stroke-width="1"
         fill="none"
         id="path988" />
    </g>
    <g
       transform="translate(397.6775144736016 409.19099281040303) rotate(0 5.853477949775197 28.97365236304404)"
       id="g994">
      <path
         d="M-2.88 32.67 C-0.14 43.28, 8.15 53.18, 11.54 59.19 M-4.11 32.22 C0.23 40.5, 3.7 48.29, 9.92 57.03"
         stroke="#000000"
         stroke-width="1"
         fill="none"
         id="path992" />
    </g>
    <g
       transform="translate(397.6775144736016 409.19099281040303) rotate(0 5.853477949775197 28.97365236304404)"
       id="g998">
      <path
         d="M16.84 28.93 C11.97 41.18, 12.61 52.52, 11.54 59.19 M15.61 28.47 C13.94 37.7, 11.4 46.63, 9.92 57.03"
         stroke="#000000"
         stroke-width="1"
         fill="none"
         id="path996" />
    </g>
  </g>
  <g
     stroke-linecap="round"
     transform="translate(10 642) rotate(0 21.5 21.5)"
     id="g1006">
    <path
       d="M1.13 -1.8 L42.19 -0.61 L44.82 41.78 L-1.72 44.16"
       stroke="none"
       stroke-width="0"
       fill="#fd7e14"
       id="path1002" />
    <path
       d="M1.02 -1.66 C15 -1, 32.28 -0.48, 41.28 -0.01 M-0.4 -0.88 C11.18 -0.32, 22.83 1.12, 43.99 -0.04 M42.37 -1.96 C42.62 18.56, 41.27 31.41, 41.28 43.52 M42.74 0.56 C43.84 9.84, 44.4 19.84, 43.52 43.58 M41.74 42.75 C30.05 44.61, 14.46 41.74, -1.47 44.84 M42.47 43.06 C27.55 43.51, 12.92 43.28, 0.61 42.68 M-0.84 41.68 C0.23 29.39, 1.05 13.65, 1.84 0.31 M0.44 42.09 C-0.71 34.43, -0.76 24.72, 0.66 -0.5"
       stroke="#e67700"
       stroke-width="1"
       fill="none"
       id="path1004" />
  </g>
  <g
     stroke-linecap="round"
     transform="translate(12 574) rotate(0 20 22)"
     id="g1012">
    <path
       d="M-1.22 0.49 L40.46 0.32 L38.71 42.39 L-1.99 42.67"
       stroke="none"
       stroke-width="0"
       fill="#82c91e"
       id="path1008" />
    <path
       d="M1.87 -1.52 C9.99 -1.35, 18.91 0.78, 39.16 -0.32 M-0.87 -0.89 C15.09 0.18, 31.09 0.32, 40.16 0.77 M39.39 -0.71 C40.1 14.27, 41.48 30.06, 41.63 43.52 M40.04 -0.43 C40.63 10.44, 40.54 19.54, 40.22 44.67 M41.12 42.94 C32.77 45.49, 21.37 45.65, 0.1 44.3 M40.53 43.61 C30.97 43.68, 22.63 44.59, 0.84 43.61 M-0.52 45.17 C-0.16 27.55, -0.45 13.85, -1.48 -1.83 M-0.15 43.65 C0.3 33.97, -0.58 23.68, 0.7 -0.86"
       stroke="#5c940d"
       stroke-width="1"
       fill="none"
       id="path1010" />
  </g>
  <g
     transform="translate(73 584) rotate(0 101.5 13)"
     id="g1016">
    <text
       x="0"
       y="18"
       font-family="Virgil, Segoe UI Emoji"
       font-size="20px"
       fill="#5c940d"
       text-anchor="start"
       style="white-space: pre;"
       direction="ltr"
       id="text1014">= &quot;implies&quot; / &quot;begets&quot;</text>
  </g>
  <g
     transform="translate(73 646) rotate(0 99.5 13)"
     id="g1020">
    <text
       x="0"
       y="18"
       font-family="Virgil, Segoe UI Emoji"
       font-size="20px"
       fill="#e67700"
       text-anchor="start"
       style="white-space: pre;"
       direction="ltr"
       id="text1018">= &quot;concomitant with&quot;</text>
  </g>
</svg>
